<?xml version="1.0" encoding="UTF-8"?>
<svg width="50px" height="50px" viewBox="0 0 50 50" version="1.1" xmlns="http://www.w3.org/2000/svg" xmlns:xlink="http://www.w3.org/1999/xlink">
    <!-- Generator: Sketch 57 (83077) - https://sketch.com -->
    <title>icon_tab_首页_normal</title>
    <desc>Created with Sketch.</desc>
    <g id="icon" stroke="none" stroke-width="1" fill="none" fill-rule="evenodd" stroke-linejoin="round">
        <g id="画板" transform="translate(-45.000000, -50.000000)" stroke="#979797" stroke-width="2">
            <g id="icon_tab_首页_normal" transform="translate(45.000000, 50.000000)">
                <path d="M25.7618756,4.02620618 L44.8093851,19.5163794 C45.4354535,20.0255225 45.5302402,20.9457932 45.0210971,21.5718616 C44.7436348,21.9130434 44.3272617,22.1111111 43.8875,22.1111111 L41.775,22.1111111 C40.6704305,22.1111111 39.775,23.0065416 39.775,24.1111111 L39.775,44 C39.775,45.1045695 38.8795695,46 37.775,46 L31,46 L31,28 C31,26.8954305 30.1045695,26 29,26 L29,26 L21,26 C19.8954305,26 19,26.8954305 19,28 L19,28 L19,46 L11.225,46 C10.1204305,46 9.225,45.1045695 9.225,44 L9.225,24.1111111 C9.225,23.0065416 8.3295695,22.1111111 7.225,22.1111111 L5.1125,22.1111111 C4.30553761,22.1111111 3.65136534,21.4569388 3.65136534,20.6499765 C3.65136534,20.2102148 3.84943308,19.7938417 4.1906149,19.5163794 L23.2381244,4.02620618 C23.9731823,3.4284286 25.0268177,3.4284286 25.7618756,4.02620618 Z" id="形状结合"></path>
            </g>
        </g>
    </g>
</svg>