<?xml version="1.0" encoding="UTF-8"?>
<svg width="50px" height="50px" viewBox="0 0 50 50" version="1.1" xmlns="http://www.w3.org/2000/svg" xmlns:xlink="http://www.w3.org/1999/xlink">
    <!-- Generator: Sketch 57 (83077) - https://sketch.com -->
    <title>icon_tab_我的_normal</title>
    <desc>Created with Sketch.</desc>
    <g id="icon" stroke="none" stroke-width="1" fill="none" fill-rule="evenodd" stroke-linejoin="round">
        <g id="画板" transform="translate(-104.000000, -50.000000)" stroke="#979797" stroke-width="2">
            <g id="icon_tab_我的_normal" transform="translate(104.000000, 50.000000)">
                <path d="M25,4 C31.2960461,4 36.4,8.96217736 36.4,15.0833333 C36.4,18.6438803 34.6730757,21.8122866 31.9891254,23.84004 C38.1045468,24.0386496 43,28.9218414 43,34.9166667 L43,43.0088006 C43,44.0489058 42.8886093,44.4260731 42.6794408,44.80632 C42.4702722,45.1865669 42.163326,45.4849869 41.7722148,45.6883452 C41.3811037,45.8917035 40.9931602,46 39.9233378,46 L10.0766622,46 C9.00683975,46 8.61889627,45.8917035 8.22778516,45.6883452 C7.83667404,45.4849869 7.52972776,45.1865669 7.32055924,44.80632 C7.11139073,44.4260731 7,44.0489058 7,43.0088006 L7,34.9166667 C7,28.9218414 11.8954532,24.0386496 18.0117371,23.8396407 C15.3269243,21.8122866 13.6,18.6438803 13.6,15.0833333 C13.6,8.96217736 18.7039539,4 25,4 Z M32,26.8589611 C32.5522847,26.8589611 33,27.3066764 33,27.8589611 L33,27.8589611 L33,34.1407798 C33,34.2907087 32.9662872,34.4387188 32.9013562,34.5738582 C32.6621736,35.0716635 32.0647269,35.2813187 31.5669216,35.0421361 L31.5669216,35.0421361 L25.0298184,31.9012267 C25.0197545,31.8963913 25.0097863,31.8913945 24.999917,31.8862396 L24.9701816,31.9012267 L24.9701816,31.9012267 L18.4330784,35.0421361 C17.9352731,35.2813187 17.3378264,35.0716635 17.0986438,34.5738582 C17.0337128,34.4387188 17,34.2907087 17,34.1407798 L17,27.8589611 C17,27.3066764 17.4477153,26.8589611 18,26.8589611 C18.1499289,26.8589611 18.297939,26.8926739 18.4330784,26.9576049 L24.9701816,30.0985142 L25,30.1139611 L25.0298184,30.0985142 L31.5669216,26.9576049 C31.702061,26.8926739 31.8500711,26.8589611 32,26.8589611 Z" id="路径-7"></path>
            </g>
        </g>
    </g>
</svg>