<?xml version="1.0" encoding="UTF-8"?>
<svg width="50px" height="50px" viewBox="0 0 50 50" version="1.1" xmlns="http://www.w3.org/2000/svg" xmlns:xlink="http://www.w3.org/1999/xlink">
    <!-- Generator: Sketch 57 (83077) - https://sketch.com -->
    <title>icon_tab_我的_selected</title>
    <desc>Created with Sketch.</desc>
    <g id="icon" stroke="none" stroke-width="1" fill="none" fill-rule="evenodd">
        <g id="画板" transform="translate(-104.000000, -108.000000)">
            <g id="icon_tab_我的_selected" transform="translate(104.000000, 108.000000)">
                <g id="icon-我的-selected" transform="translate(7.000000, 4.000000)">
                    <path d="M18,0 C24.2960461,0 29.4,4.96217736 29.4,11.0833333 C29.4,14.6438803 27.6730757,17.8122866 24.9891254,19.84004 C31.1045468,20.0386496 36,24.9218414 36,30.9166667 L36,39.0088006 C36,40.0489058 35.8886093,40.4260731 35.6794408,40.80632 C35.4702722,41.1865669 35.163326,41.4849869 34.7722148,41.6883452 C34.3811037,41.8917035 33.9931602,42 32.9233378,42 L3.07666224,42 C2.00683975,42 1.61889627,41.8917035 1.22778516,41.6883452 C0.836674045,41.4849869 0.529727756,41.1865669 0.320559245,40.80632 C0.111390733,40.4260731 0,40.0489058 0,39.0088006 L0,30.9166667 C0,24.9218414 4.89545317,20.0386496 11.0117371,19.8396407 C8.32692428,17.8122866 6.6,14.6438803 6.6,11.0833333 C6.6,4.96217736 11.7039539,0 18,0 Z" id="路径备份-2" stroke="#F05A23" stroke-width="2" fill="#F05A23"></path>
                    <path d="M25,22.8589611 C25.5522847,22.8589611 26,23.3066764 26,23.8589611 L26,23.8589611 L26,30.1407798 C26,30.2907087 25.9662872,30.4387188 25.9013562,30.5738582 C25.6621736,31.0716635 25.0647269,31.2813187 24.5669216,31.0421361 L24.5669216,31.0421361 L18.0298184,27.9012267 C18.0197545,27.8963913 18.0097863,27.8913945 17.999917,27.8862396 L17.9701816,27.9012267 L17.9701816,27.9012267 L11.4330784,31.0421361 C10.9352731,31.2813187 10.3378264,31.0716635 10.0986438,30.5738582 C10.0337128,30.4387188 10,30.2907087 10,30.1407798 L10,23.8589611 C10,23.3066764 10.4477153,22.8589611 11,22.8589611 C11.1499289,22.8589611 11.297939,22.8926739 11.4330784,22.9576049 L17.9701816,26.0985142 L18,26.1139611 L18.0298184,26.0985142 L24.5669216,22.9576049 C24.702061,22.8926739 24.8500711,22.8589611 25,22.8589611 Z" id="形状结合备份" stroke="#FFFFFF" fill="#FFFFFF"></path>
                </g>
            </g>
        </g>
    </g>
</svg>